<svg height="511pt" viewBox="1 -16 511.999 511" width="511pt" xmlns="http://www.w3.org/2000/svg"><path d="m480.683594 472.882812h-449.367188c-13.152344 0-23.816406-10.664062-23.816406-23.816406v-417.25c0-13.152344 10.664062-23.816406 23.816406-23.816406h449.367188c13.15625 0 23.816406 10.664062 23.816406 23.816406v417.25c0 13.152344-10.664062 23.816406-23.816406 23.816406zm0 0" fill="#f4f4f4"/><path d="m480.683594 8h-35c13.152344 0 23.816406 10.664062 23.816406 23.816406v417.25c0 13.152344-10.664062 23.816406-23.816406 23.816406h35c13.152344 0 23.816406-10.664062 23.816406-23.816406v-417.25c0-13.152344-10.664062-23.816406-23.816406-23.816406zm0 0" fill="#e8e8e8"/><path d="m7.5 97.464844h497v-65.648438c0-13.152344-10.664062-23.816406-23.816406-23.816406h-449.367188c-13.152344 0-23.816406 10.664062-23.816406 23.816406zm0 0" fill="#5994ce"/><path d="m480.683594 8h-35c13.152344 0 23.816406 10.664062 23.816406 23.816406v65.648438h35v-65.648438c0-13.152344-10.664062-23.816406-23.816406-23.816406zm0 0" fill="#4c7eb0"/><path d="m84.808594 52.730469c0 9.75-7.902344 17.65625-17.652344 17.65625s-17.65625-7.90625-17.65625-17.65625 7.90625-17.652344 17.65625-17.652344 17.652344 7.902344 17.652344 17.652344zm0 0" fill="#fa5d72"/><path d="m144.570312 52.730469c0 9.75-7.90625 17.65625-17.65625 17.65625s-17.652343-7.90625-17.652343-17.65625 7.902343-17.652344 17.652343-17.652344 17.65625 7.902344 17.65625 17.652344zm0 0" fill="#f6d867"/><path d="m204.328125 52.730469c0 9.75-7.902344 17.65625-17.652344 17.65625s-17.65625-7.90625-17.65625-17.65625 7.90625-17.652344 17.65625-17.652344 17.652344 7.902344 17.652344 17.652344zm0 0" fill="#2cab72"/><path d="m7.5 97.464844v351.601562c0 13.152344 10.664062 23.816406 23.816406 23.816406h137.703125v-375.417968zm0 0" fill="#a7c3de"/><path d="m144.570312 97.464844h24.449219v375.417968h-24.449219zm0 0" fill="#93acc4"/><path d="m312.078125 227.945312h-104.15625c-4.375 0-7.921875-3.546874-7.921875-7.921874v-77.960938c0-4.375 3.546875-7.921875 7.921875-7.921875h104.15625c4.375 0 7.921875 3.546875 7.921875 7.921875v77.960938c0 4.375-3.546875 7.921874-7.921875 7.921874zm0 0" fill="#fa5d72"/><path d="m312.078125 134.140625h-24c4.375 0 7.921875 3.546875 7.921875 7.921875v77.960938c0 4.375-3.546875 7.921874-7.921875 7.921874h24c4.375 0 7.921875-3.546874 7.921875-7.921874v-77.960938c0-4.375-3.546875-7.921875-7.921875-7.921875zm0 0" fill="#e35567"/><path d="m465.683594 227.945312h-101.367188c-5.144531 0-9.316406-4.171874-9.316406-9.316406v-75.171875c0-5.144531 4.171875-9.316406 9.316406-9.316406h101.367188c5.144531 0 9.316406 4.171875 9.316406 9.316406v75.171875c0 5.144532-4.171875 9.316406-9.316406 9.316406zm0 0" fill="#fa5d72"/><path d="m475 218.628906v-75.171875c0-5.144531-4.171875-9.316406-9.316406-9.316406h-23.316406c5.144531 0 9.316406 4.171875 9.316406 9.316406v75.171875c0 5.144532-4.171875 9.316406-9.316406 9.316406h23.316406c5.144531 0 9.316406-4.171874 9.316406-9.316406zm0 0" fill="#e35567"/><path d="m467.078125 361.929688h-259.15625c-4.375 0-7.921875-3.546876-7.921875-7.921876v-86.15625c0-4.375 3.546875-7.921874 7.921875-7.921874h259.15625c4.375 0 7.921875 3.546874 7.921875 7.921874v86.15625c0 4.375-3.546875 7.921876-7.921875 7.921876zm0 0" fill="#fa5d72"/><path d="m467.078125 259.929688h-23.5c4.375 0 7.921875 3.546874 7.921875 7.921874v86.15625c0 4.375-3.546875 7.921876-7.921875 7.921876h23.5c4.375 0 7.921875-3.546876 7.921875-7.921876v-86.15625c0-4.375-3.546875-7.921874-7.921875-7.921874zm0 0" fill="#e35567"/><path d="m467.601562 430.507812h-259.679687c-4.375 0-7.921875-3.546874-7.921875-7.921874v-16.953126c0-4.375 3.546875-7.921874 7.921875-7.921874h259.679687c4.375 0 7.921876 3.546874 7.921876 7.921874v16.953126c0 4.375-3.546876 7.921874-7.921876 7.921874zm0 0" fill="#fba826"/><path d="m467.601562 397.710938h-23c4.375 0 7.921876 3.546874 7.921876 7.921874v16.953126c0 4.375-3.546876 7.921874-7.921876 7.921874h23c4.375 0 7.921876-3.546874 7.921876-7.921874v-16.953126c0-4.375-3.546876-7.921874-7.921876-7.921874zm0 0" fill="#e09721"/><path d="m67.15625 27.578125c-13.871094 0-25.15625 11.285156-25.15625 25.15625 0 13.867187 11.285156 25.152344 25.152344 25.152344 13.871094 0 25.15625-11.285157 25.15625-25.152344 0-13.871094-11.285156-25.15625-25.152344-25.15625zm0 35.308594c-5.601562 0-10.15625-4.554688-10.15625-10.152344 0-5.601563 4.554688-10.15625 10.152344-10.15625 5.601562 0 10.15625 4.554687 10.15625 10.15625 0 5.597656-4.554688 10.152344-10.152344 10.152344zm0 0"/><path d="m126.914062 27.578125c-13.867187 0-25.152343 11.285156-25.152343 25.15625 0 13.867187 11.285156 25.152344 25.152343 25.152344 13.871094 0 25.15625-11.285157 25.15625-25.152344 0-13.871094-11.285156-25.15625-25.15625-25.15625zm0 35.308594c-5.597656 0-10.152343-4.554688-10.152343-10.152344 0-5.601563 4.554687-10.15625 10.152343-10.15625 5.601563 0 10.15625 4.554687 10.15625 10.15625 0 5.597656-4.554687 10.152344-10.15625 10.152344zm0 0"/><path d="m186.675781 27.578125c-13.871093 0-25.15625 11.285156-25.15625 25.15625 0 13.867187 11.285157 25.152344 25.15625 25.152344 13.867188 0 25.152344-11.285157 25.152344-25.152344 0-13.871094-11.285156-25.15625-25.152344-25.15625zm0 35.308594c-5.601562 0-10.15625-4.554688-10.15625-10.152344 0-5.601563 4.554688-10.15625 10.15625-10.15625 5.597657 0 10.152344 4.554687 10.152344 10.15625 0 5.597656-4.554687 10.152344-10.152344 10.152344zm0 0"/><path d="m459.832031 52.734375c0-4.144531-3.355469-7.5-7.5-7.5h-182.664062c-4.144531 0-7.5 3.355469-7.5 7.5 0 4.140625 3.355469 7.5 7.5 7.5h182.667969c4.140624 0 7.496093-3.359375 7.496093-7.5zm0 0"/><path d="m480.683594.5h-449.367188c-17.292968 0-31.316406 14.074219-31.316406 31.316406v417.25c0 1.890625.167969 3.738282.488281 5.535156.046875.257813.097657.515626.148438.769532.078125.378906.164062.757812.257812 1.136718.058594.25.125.5.191407.75.066406.25.136718.496094.210937.742188 3.855469 12.929688 15.855469 22.382812 30.019531 22.382812h449.367188c17.265625 0 31.316406-14.046874 31.316406-31.316406v-417.25c0-17.246094-14.027344-31.316406-31.316406-31.316406zm-319.164063 464.882812h-130.203125c-7.449218 0-13.75-5.019531-15.695312-11.855468-.039063-.128906-.074219-.257813-.105469-.390625-.035156-.128907-.066406-.257813-.097656-.390625-.273438-1.183594-.417969-2.414063-.417969-3.679688v-344.101562h146.519531zm319.164063 0h-304.164063v-360.417968h170.480469c4.140625 0 7.5-3.359375 7.5-7.5 0-4.144532-3.359375-7.5-7.5-7.5h-332v-58.148438c0-8.976562 7.296875-16.316406 16.316406-16.316406h449.367188c8.957031 0 16.316406 7.28125 16.316406 16.316406v58.148438h-122c-4.140625 0-7.5 3.355468-7.5 7.5 0 4.140625 3.359375 7.5 7.5 7.5h122v344.101562c0 8.996094-7.320312 16.316406-16.316406 16.316406zm0 0"/><path d="m38.761719 146.941406h99c4.140625 0 7.5-3.359375 7.5-7.5s-3.359375-7.5-7.5-7.5h-99c-4.144531 0-7.5 3.359375-7.5 7.5s3.355469 7.5 7.5 7.5zm0 0"/><path d="m38.761719 193.859375h99c4.140625 0 7.5-3.359375 7.5-7.5 0-4.144531-3.359375-7.5-7.5-7.5h-99c-4.144531 0-7.5 3.355469-7.5 7.5 0 4.140625 3.355469 7.5 7.5 7.5zm0 0"/><path d="m38.761719 240.773438h99c4.140625 0 7.5-3.359376 7.5-7.5 0-4.140626-3.359375-7.5-7.5-7.5h-99c-4.144531 0-7.5 3.359374-7.5 7.5 0 4.140624 3.355469 7.5 7.5 7.5zm0 0"/><path d="m38.761719 287.6875h99c4.140625 0 7.5-3.355469 7.5-7.5 0-4.140625-3.359375-7.5-7.5-7.5h-99c-4.144531 0-7.5 3.359375-7.5 7.5 0 4.144531 3.355469 7.5 7.5 7.5zm0 0"/><path d="m207.921875 235.445312h104.15625c8.503906 0 15.421875-6.917968 15.421875-15.421874v-77.960938c0-8.503906-6.917969-15.421875-15.421875-15.421875h-104.15625c-8.503906 0-15.421875 6.917969-15.421875 15.421875v77.960938c0 8.503906 6.917969 15.421874 15.421875 15.421874zm-.421875-93.382812c0-.230469.1875-.421875.421875-.421875h104.15625c.230469 0 .421875.191406.421875.421875v77.960938c0 .230468-.1875.421874-.421875.421874h-104.15625c-.230469 0-.421875-.191406-.421875-.421874zm0 0"/><path d="m362.921875 235.445312h104.15625c8.503906 0 15.421875-6.917968 15.421875-15.421874v-77.960938c0-8.503906-6.917969-15.421875-15.421875-15.421875h-104.15625c-8.503906 0-15.421875 6.917969-15.421875 15.421875v77.960938c0 8.503906 6.917969 15.421874 15.421875 15.421874zm102.761719-93.804687c1 0 1.816406.816406 1.816406 1.816406v75.171875c0 1-.816406 1.816406-1.816406 1.816406h-101.367188c-1 0-1.816406-.816406-1.816406-1.816406v-75.171875c0-1 .816406-1.816406 1.816406-1.816406zm0 0"/><path d="m467.601562 390.210938h-259.679687c-8.503906 0-15.421875 6.917968-15.421875 15.421874v16.953126c0 8.503906 6.917969 15.421874 15.421875 15.421874h259.679687c8.503907 0 15.421876-6.917968 15.421876-15.421874v-16.953126c0-8.503906-6.917969-15.421874-15.421876-15.421874zm.421876 32.375c0 .230468-.1875.421874-.421876.421874h-259.679687c-.234375 0-.421875-.1875-.421875-.421874v-16.953126c0-.234374.1875-.421874.421875-.421874h259.679687c.230469 0 .421876.1875.421876.421874zm0 0"/><path d="m207.921875 369.429688h38.078125c4.140625 0 7.5-3.355469 7.5-7.5 0-4.140626-3.359375-7.5-7.5-7.5h-38.078125c-.230469 0-.421875-.1875-.421875-.421876v-86.15625c0-.230468.1875-.421874.421875-.421874h259.15625c.230469 0 .421875.191406.421875.421874v86.15625c0 .234376-.1875.421876-.421875.421876h-193.078125c-4.140625 0-7.5 3.359374-7.5 7.5 0 4.144531 3.359375 7.5 7.5 7.5h193.078125c8.503906 0 15.421875-6.917969 15.421875-15.421876v-86.15625c0-8.503906-6.917969-15.421874-15.421875-15.421874h-259.15625c-8.503906 0-15.421875 6.917968-15.421875 15.421874v86.15625c0 8.503907 6.917969 15.421876 15.421875 15.421876zm0 0"/></svg>