<svg id="Layer_5" enable-background="new 0 0 64 64" height="512" viewBox="0 0 64 64" width="512" xmlns="http://www.w3.org/2000/svg"><g><g><g><path d="m8 40h4v22h-4z" fill="#ffeaa7"/></g><g><path d="m12 2v20h-4v-8-12z" fill="#ffeaa7"/></g><g><path d="m8 14v8h-2c-1.1 0-2.1-.45-2.83-1.17-.72-.73-1.17-1.73-1.17-2.83 0-2.21 1.79-4 4-4z" fill="#aab2bd"/></g><g><path d="m12 2h4v20h-4z" fill="#aab2bd"/></g><g><path d="m16 58v4h-4v-22h4z" fill="#aab2bd"/></g><g><path d="m50 14v-12h-34v56s4-4 9-4 10 4 19 4 11-6 18-6v-18-20z" fill="#e6e9ed"/></g><g><path d="m32 6h14v12h-14z" fill="#fcd770"/></g><g><path d="m62 14h-12v-12z" fill="#b4dd7f"/></g><g><path d="m62 52v10h-46v-4s4-4 9-4 10 4 19 4 11-6 18-6z" fill="#ff826e"/></g><g><path d="m20 44h10v6h-10z" fill="#aab2bd"/></g><g><path d="m36 40h-20-4-4-2c-2.21 0-4-1.79-4-4v-18c0 1.1.45 2.1 1.17 2.83.73.72 1.73 1.17 2.83 1.17h2 4 4 20c2.21 0 4 1.79 4 4v8 2c0 2.21-1.79 4-4 4z" fill="#ff826e"/></g></g><g><path d="m50.414 1h-43.414v12h-1c-2.757 0-5 2.243-5 5v18c0 2.757 2.243 5 5 5h1v22h56v-49.414zm-35.414 40v20h-2v-20zm2 0h19c2.757 0 5-2.243 5-5v-10c0-2.757-2.243-5-5-5h-19v-18h32v12h12v36.051c-3.019.243-5.196 1.541-7.299 2.811-2.555 1.542-5.197 3.138-9.701 3.138-4.99 0-8.693-1.265-11.959-2.381-2.543-.869-4.74-1.619-7.041-1.619-3.366 0-6.266 1.627-8 2.88zm-4-20v-18h2v18zm38-8v-8.586l8.586 8.586zm-40-10v18h-2v-18zm-5 12h1v6h-1c-1.654 0-3-1.346-3-3s1.346-3 3-3zm-3 21v-14.002c.836.629 1.875 1.002 3 1.002h30c1.654 0 3 1.346 3 3v10c0 1.654-1.346 3-3 3h-30c-1.654 0-3-1.346-3-3zm6 5h2v20h-2zm8 20v-2.561c.957-.845 4.202-3.439 8-3.439 1.969 0 4.02.7 6.394 1.512 3.245 1.108 7.283 2.488 12.606 2.488 5.061 0 8.075-1.82 10.735-3.426 2.023-1.222 3.805-2.292 6.265-2.524v7.95z"/><path d="m11 25h-4v12h2v-4h2c2.206 0 4-1.794 4-4s-1.794-4-4-4zm0 6h-2v-4h2c1.103 0 2 .897 2 2s-.897 2-2 2z"/><path d="m21 25h-4v12h4c3.309 0 6-2.691 6-6s-2.691-6-6-6zm0 10h-2v-8h2c2.206 0 4 1.794 4 4s-1.794 4-4 4z"/><path d="m29 37h2v-4h4v-2h-4v-4h4v-2h-6z"/><path d="m31 43h-12v8h12zm-2 6h-8v-4h8z"/><path d="m33 43h2v2h-2z"/><path d="m37 43h22v2h-22z"/><path d="m33 47h26v2h-26z"/><path d="m41 51h2v2h-2z"/><path d="m37 51h2v2h-2z"/><path d="m33 51h2v2h-2z"/><path d="m47 5h-16v14h16zm-2 12h-12v-10h12z"/><path d="m19 5h2v2h-2z"/><path d="m23 5h6v2h-6z"/><path d="m19 9h10v2h-10z"/><path d="m19 13h10v2h-10z"/><path d="m19 17h10v2h-10z"/><path d="m43 21h2v2h-2z"/><path d="m47 21h12v2h-12z"/><path d="m43 25h16v2h-16z"/><path d="m43 29h16v2h-16z"/><path d="m43 33h16v2h-16z"/><path d="m43 37h16v2h-16z"/><path d="m57 17h2v2h-2z"/><path d="m49 17h2v2h-2z"/><path d="m53 17h2v2h-2z"/></g></g></svg>