<svg height="512pt" viewBox="0 0 512 512" width="512pt" xmlns="http://www.w3.org/2000/svg"><path d="m257 0h-257v512h392v-377zm0 0" fill="#edf3f6"/><path d="m257 0h-61v512h196v-377zm0 0" fill="#ddebf0"/><path d="m257 135h135l-135-135zm0 0" fill="#a7d2d7"/><path d="m76 60h120v30h-120zm0 0" fill="#0042a2"/><path d="m76 120h120v30h-120zm0 0" fill="#c5e1e6"/><path d="m242 240h90v30h-90zm0 0" fill="#a7d2d7"/><path d="m242 300h90v30h-90zm0 0" fill="#a7d2d7"/><path d="m512 407-90-99.089844v54.089844h-139v90h139v54.089844zm0 0" fill="#8ee16a"/><path d="m121.023438 215c-41.351563 0-75 33.644531-75 75s33.648437 75 75 75c41.023437 0 74.4375-33.105469 74.976562-74zm0 0" fill="#0042a2"/><path d="m76 422h120v30h-120zm0 0" fill="#c5e1e6"/><path d="m195.976562 291c.003907-.335938.023438-.664062.023438-1 0-41.355469-33.644531-75-75-75v76zm0 0" fill="#27d8f6"/></svg>