<?xml version="1.0" encoding="iso-8859-1"?>
<!-- Generator: Adobe Illustrator 19.0.0, SVG Export Plug-In . SVG Version: 6.00 Build 0)  -->
<svg version="1.1" id="Capa_1" xmlns="http://www.w3.org/2000/svg" xmlns:xlink="http://www.w3.org/1999/xlink" x="0px" y="0px"
	 viewBox="0 0 437.29 437.29" style="enable-background:new 0 0 437.29 437.29;" xml:space="preserve">
<rect x="23.51" y="49.371" style="fill:#4DCFE0;" width="390.269" height="262.269"/>
<g>
	<path style="fill:#D4E1F4;" d="M132.18,333.061v52.245H98.743c-7.314,0-13.061,5.747-13.061,13.061s5.747,13.061,13.061,13.061
		h239.282c7.314,0,13.061-5.747,13.061-13.061s-5.747-13.061-13.061-13.061h-33.437v-52.245H132.18z"/>
	<path style="fill:#D4E1F4;" d="M65.306,251.559h306.678c7.314,0,13.061-5.747,13.061-13.061V122.514
		c0-7.314-5.747-13.061-13.061-13.061H65.306c-7.314,0-13.061,5.747-13.061,13.061v115.984
		C52.245,245.812,57.992,251.559,65.306,251.559z"/>
</g>
<g>
	<path style="fill:#3A2C51;" d="M186.514,179.461c0,17.763,14.106,32.392,31.869,32.392c17.763,0,31.869-14.106,31.869-31.869
		s-14.106-32.392-31.869-32.392S186.514,161.698,186.514,179.461z"/>
	<path style="fill:#3A2C51;" d="M266.449,179.461c0,17.763,14.106,31.869,31.869,31.869s31.869-14.106,31.869-31.869
		s-14.106-31.869-31.869-31.869S266.449,161.698,266.449,179.461z"/>
	<path style="fill:#3A2C51;" d="M106.58,179.461c0,17.763,14.106,31.869,31.869,31.869s31.869-14.106,31.869-31.869
		s-14.106-31.869-31.869-31.869S106.58,161.698,106.58,179.461z"/>
</g>
<path style="fill:#00BBD3;" d="M424.229,25.861H13.061C5.747,25.861,0,31.608,0,38.922V322.09c0,7.314,5.747,13.061,13.061,13.061
	H132.18h172.408h119.641c7.314,0,13.061-5.747,13.061-13.061V38.922C437.29,31.608,431.543,25.861,424.229,25.861z M411.167,309.029
	H26.122V51.984h385.045C411.167,51.984,411.167,309.029,411.167,309.029z"/>
<g>
</g>
<g>
</g>
<g>
</g>
<g>
</g>
<g>
</g>
<g>
</g>
<g>
</g>
<g>
</g>
<g>
</g>
<g>
</g>
<g>
</g>
<g>
</g>
<g>
</g>
<g>
</g>
<g>
</g>
</svg>
