<svg height="512" viewBox="0 0 64 64" width="512" xmlns="http://www.w3.org/2000/svg"><g id="Login"><path d="m59 3h-54a2 2 0 0 0 -2 2v6h58v-6a2 2 0 0 0 -2-2z" fill="#ff3051"/><path d="m61 11v48a2.006 2.006 0 0 1 -2 2h-54a2.006 2.006 0 0 1 -2-2v-48z" fill="#d1e7f8"/><path d="m14 61h45a2.006 2.006 0 0 0 2-2v-34c0 19.9-21.021 36-47 36z" fill="#c2dff6"/><path d="m29 31h28v8h-28z" fill="#ffcd00"/><path d="m29 43h28v8h-28z" fill="#ffcd00"/><path d="m25 43a4 4 0 0 0 -4-4h-10a4 4 0 0 0 -4 4v8h18z" fill="#7ed63e"/><circle cx="16" cy="32" fill="#7ed63e" r="4"/><g fill="#231f20"><path d="m59 2h-54a3 3 0 0 0 -3 3v54a3 3 0 0 0 3 3h54a3 3 0 0 0 3-3v-54a3 3 0 0 0 -3-3zm-54 2h54a1 1 0 0 1 1 1v5h-56v-5a1 1 0 0 1 1-1zm54 56h-54a1 1 0 0 1 -1-1v-47h56v47a1 1 0 0 1 -1 1z"/><path d="m7 8h1a1 1 0 0 0 0-2h-1a1 1 0 0 0 0 2z"/><path d="m12 8h1a1 1 0 0 0 0-2h-1a1 1 0 0 0 0 2z"/><path d="m17 8h1a1 1 0 0 0 0-2h-1a1 1 0 0 0 0 2z"/><path d="m57 30h-28a1 1 0 0 0 -1 1v8a1 1 0 0 0 1 1h28a1 1 0 0 0 1-1v-8a1 1 0 0 0 -1-1zm-1 8h-26v-6h26z"/><path d="m57 42h-28a1 1 0 0 0 -1 1v8a1 1 0 0 0 1 1h28a1 1 0 0 0 1-1v-8a1 1 0 0 0 -1-1zm-1 8h-26v-6h26z"/><path d="m21 38h-10a5.006 5.006 0 0 0 -5 5v8a1 1 0 0 0 1 1h18a1 1 0 0 0 1-1v-8a5.006 5.006 0 0 0 -5-5zm3 12h-16v-7a3 3 0 0 1 3-3h10a3 3 0 0 1 3 3z"/><path d="m16 37a5 5 0 1 0 -5-5 5.006 5.006 0 0 0 5 5zm0-8a3 3 0 1 1 -3 3 3 3 0 0 1 3-3z"/><path d="m29 25h4a1 1 0 0 0 0-2h-3v-5a1 1 0 0 0 -2 0v6a1 1 0 0 0 1 1z"/><path d="m37 25a3 3 0 1 0 -3-3 3 3 0 0 0 3 3zm0-4a1 1 0 1 1 -1 1 1 1 0 0 1 1-1z"/><path d="m44 25a2.966 2.966 0 0 0 1-.184v.184a1 1 0 0 1 -1 1h-1a1 1 0 0 0 0 2h1a3 3 0 0 0 3-3v-5a1 1 0 0 0 -1.713-.7 3 3 0 1 0 -1.287 5.7zm0-4a1 1 0 1 1 -1 1 1 1 0 0 1 1-1z"/><path d="m49 25a1 1 0 0 0 1-1v-4a1 1 0 0 0 -2 0v4a1 1 0 0 0 1 1z"/><path d="m52 25a1 1 0 0 0 1-1v-2.5a.5.5 0 0 1 1 0v2.5a1 1 0 0 0 2 0v-2.5a2.495 2.495 0 0 0 -3.447-2.311.972.972 0 0 0 -.553-.189 1 1 0 0 0 -1 1v4a1 1 0 0 0 1 1z"/><circle cx="49" cy="17" r="1"/></g></g></svg>