<?xml version="1.0" standalone="yes"?>
<svg xmlns="http://www.w3.org/2000/svg" width="50" height="86">
<path style="fill:#cae5f8; stroke:none;" d="M0 0C0.175308 7.49194 3.20491 13.3558 8 19C5.29081 18.3521 2.78446 18.0583 0 18L0 31C3.2278 31.776 6.26491 32.7013 8.60571 35.2245C15.9129 43.1013 8.77478 52.4105 0 54L0 68L8 67C3.10709 72.7556 0.16262 78.3661 0 86L13 86C15.6746 71.2353 33.3255 71.2354 36 86L50 86C49.8374 78.3661 46.8929 72.7556 42 67C44.7092 67.6479 47.2155 67.9417 50 68L50 55C35.144 52.3089 35.1758 34.6853 50 32L50 18C47.2155 18.0583 44.7092 18.3521 42 19C46.7837 13.3691 49.6596 7.44923 50 0L37 0C36.2288 3.20759 35.3186 6.28094 32.7755 8.58102C24.8352 15.7625 15.5945 8.80235 14 0L0 0z"/>
<path style="fill:#fbc66a; stroke:none;" d="M14 0C14.9702 9.41051 25.6439 16.5127 33.581 8.58102C35.9087 6.25492 36.5316 3.11056 37 0L14 0z"/>
<path style="fill:#ffffff; stroke:none;" d="M49 5C47.7135 10.3662 44.8554 14.3679 42 19C44.6858 18.4992 47.2699 18.1174 50 18C50 13.7366 50.6611 8.95867 49 5M0 6L0 18C2.73005 18.1174 5.3142 18.4992 8 19C5.36963 14.733 3.00621 9.9558 0 6M15 23C18.5079 27.1818 21.6717 34.0496 26 37C27.4393 32.1087 30.3525 28.294 33 24C26.4471 25.2166 21.3873 24.6899 15 23z"/>
<path style="fill:#fbc66a; stroke:none;" d="M0 31L0 54C9.36235 53.0347 16.6619 42.2787 8.60571 34.419C6.24011 32.1111 3.13268 31.4717 0 31M50 55L50 32C34.7435 33.573 34.8189 53.4348 50 55z"/>
<path style="fill:#d7dfd2; stroke:none;" d="M38.3333 46.6667C38.2778 46.7222 38.2222 47.7778 38.6667 47.3333C38.7222 47.2778 38.7778 46.2222 38.3333 46.6667z"/>
<path style="fill:#ffffff; stroke:none;" d="M24 49C22.1106 54.4498 19.5242 58.3874 15 62C18.0291 62.543 20.878 61.1137 24 61.0826C27.7246 61.0454 31.3829 62.2538 35 63C31.1938 58.4625 27.9731 54.6914 26 49L24 49M0 68L0 80L8 67L0 68M42 67C44.6475 71.294 47.5607 75.1087 49 80C50.5515 76.3025 50 71.9832 50 68C47.2699 67.8826 44.6858 67.5008 42 67z"/>
<path style="fill:#fbc66a; stroke:none;" d="M13 86L36 86C34.4236 70.7097 14.5765 70.7098 13 86z"/>
</svg>
